<svg xmlns="http://www.w3.org/2000/svg" viewBox="0 0 16 16"><defs><style type="text/css">.skinbase80{fill:#517bcc;fill-opacity:0.8;}</style></defs><title>基本形状-八边形</title><path class="skinbase80" d="M-.03,8.255a.5.5,0,0,1,0-.51l3.85-6.5A.5.5,0,0,1,4.25,1h7.5a.5.5,0,0,1,.43.245l3.85,6.5a.5.5,0,0,1,0,.51l-3.85,6.5a.5.5,0,0,1-.43.245H4.25a.5.5,0,0,1-.43-.245ZM4.535,14h6.93l3.554-6L11.465,2H4.535L.981,8ZM8.5,7.5a1.75,1.75,0,0,1,0,3.5h-1a1.75,1.75,0,0,1,0-3.5Zm-.25,0a.75.75,0,0,0,0-1.5h-.5a.75.75,0,0,0,0,1.5Zm-.258,1H7.5a.75.75,0,0,0,0,1.5h1a.75.75,0,0,0,0-1.5Zm-.242,0a1.75,1.75,0,0,1,0-3.5h.5a1.75,1.75,0,0,1,0,3.5Z"/></svg>