<svg xmlns="http://www.w3.org/2000/svg" viewBox="0 0 16 16"><defs><style type="text/css">.skinbase80{fill:#517bcc;fill-opacity:0.8;}</style></defs><title>基本形状-缺角矩形</title><path class="skinbase80" d="M3,1.5A.5.5,0,0,1,3.5,1h9a.5.5,0,0,1,.5.5v1A1.5,1.5,0,0,0,14.5,4h1a.5.5,0,0,1,.5.5v7a.5.5,0,0,1-.5.5h-1A1.5,1.5,0,0,0,13,13.5v1a.5.5,0,0,1-.5.5h-9a.5.5,0,0,1-.5-.5v-1A1.5,1.5,0,0,0,1.5,12H.5a.5.5,0,0,1-.5-.5v-7A.5.5,0,0,1,.5,4h1A1.5,1.5,0,0,0,3,2.5ZM4,2v.5A2.5,2.5,0,0,1,1.5,5H1v6h.5A2.5,2.5,0,0,1,4,13.5V14h8v-.5A2.5,2.5,0,0,1,14.5,11H15V5h-.5A2.5,2.5,0,0,1,12,2.5V2Z"/></svg>