<svg xmlns="http://www.w3.org/2000/svg" viewBox="0 0 16 16"><defs><style type="text/css">.skinbase80{fill:#517bcc;fill-opacity:0.8;}</style></defs><title>基本形状-垂直文本框</title><path class="skinbase80" d="M11.3,7l-.8-2.1L9.7,7ZM8.967,8.928a.5.5,0,1,1-.934-.356L9.659,4.3a.9.9,0,0,1,1.682,0l1.626,4.269a.5.5,0,0,1-.934.356L11.679,8H9.321ZM1.5,1h13A1.5,1.5,0,0,1,16,2.5v11A1.5,1.5,0,0,1,14.5,15H1.5A1.5,1.5,0,0,1,0,13.5V2.5A1.5,1.5,0,0,1,1.5,1Zm0,1a.5.5,0,0,0-.5.5v11a.5.5,0,0,0,.5.5h13a.5.5,0,0,0,.5-.5V2.5a.5.5,0,0,0-.5-.5ZM4,4.5v7a.5.5,0,1,1-1,0v-7A.5.5,0,1,1,4,4.5Zm3,0v7a.5.5,0,1,1-1,0v-7A.5.5,0,1,1,7,4.5Zm3,6v1a.5.5,0,1,1-1,0v-1A.5.5,0,1,1,10,10.5Zm3,0v1a.5.5,0,1,1-1,0v-1A.5.5,0,1,1,13,10.5Z"/></svg>