<svg xmlns="http://www.w3.org/2000/svg" viewBox="0 0 16 16"><defs><style type="text/css">.skinbase80{fill:#517bcc;fill-opacity:0.8;}</style></defs><title>基本形状-太阳形</title><path class="skinbase80" d="M8,13a5,5,0,1,1,5-5A5,5,0,0,1,8,13Zm0-1A4,4,0,1,0,4,8,4,4,0,0,0,8,12ZM1.146,6.646A.5.5,0,0,1,2,7V9a.5.5,0,0,1-.854.354l-1-1a.5.5,0,0,1,0-.707ZM1,8.207,1.207,8,1,7.793ZM7.646.146a.5.5,0,0,1,.707,0l1,1A.5.5,0,0,1,9,2H7a.5.5,0,0,1-.354-.854ZM8,1.207,8.207,1H7.793ZM14,7a.5.5,0,0,1,.854-.354l1,1a.5.5,0,0,1,0,.707l-1,1A.5.5,0,0,1,14,9Zm1,1.207V7.793L14.793,8ZM8.354,15.854a.5.5,0,0,1-.707,0l-1-1A.5.5,0,0,1,7,14H9a.5.5,0,0,1,.354.854ZM8,14.793,7.793,15h.414ZM4.111,2.2a.5.5,0,0,1,.354.854L3.05,4.464A.5.5,0,0,1,2.2,4.111V2.7a.5.5,0,0,1,.5-.5ZM2.9,3.2H3.2V2.9Zm10.4-1a.5.5,0,0,1,.5.5V4.111a.5.5,0,0,1-.854.354L11.536,3.05a.5.5,0,0,1,.354-.854Zm-.5,1H13.1L12.8,2.9Zm.146,8.339a.5.5,0,0,1,.854.354V13.3a.5.5,0,0,1-.5.5H11.889a.5.5,0,0,1-.354-.854ZM12.8,13.1,13.1,12.8H12.8ZM2.7,13.8a.5.5,0,0,1-.5-.5V11.889a.5.5,0,0,1,.854-.354L4.464,12.95a.5.5,0,0,1-.354.854Zm.5-1H2.9L3.2,13.1Z"/></svg>