<svg xmlns="http://www.w3.org/2000/svg" viewBox="0 0 16 16"><defs><style type="text/css">.skinbase80{fill:#517bcc;fill-opacity:0.8;}</style></defs><title>基本形状-笑脸</title><path class="skinbase80" d="M8,16a8,8,0,1,1,8-8A8,8,0,0,1,8,16Zm0-1A7,7,0,1,0,1,8,7,7,0,0,0,8,15ZM4.5,8A1.5,1.5,0,1,1,6,6.5,1.5,1.5,0,0,1,4.5,8Zm0-1A.5.5,0,1,0,4,6.5.5.5,0,0,0,4.5,7Zm7,1A1.5,1.5,0,1,1,13,6.5,1.5,1.5,0,0,1,11.5,8Zm0-1a.5.5,0,1,0-.5-.5A.5.5,0,0,0,11.5,7ZM3.037,9.689a.5.5,0,0,1,.926-.379,4.362,4.362,0,0,0,8.074,0,.5.5,0,1,1,.926.379,5.362,5.362,0,0,1-9.926,0Z"/></svg>