<svg xmlns="http://www.w3.org/2000/svg" viewBox="0 0 16 16"><defs><style type="text/css">.skinbase80{fill:#517bcc;fill-opacity:0.8;}</style></defs><title>基本形状-双大括号</title><path class="skinbase80" d="M2,8a2.5,2.5,0,0,1,1,2v2a2,2,0,0,0,2,2h.5a.5.5,0,0,1,0,1H5a3,3,0,0,1-3-3V10a1.5,1.5,0,0,0-.6-1.2L.2,7.9a.5.5,0,0,1,0-.8l1.2-.9A1.5,1.5,0,0,0,2,5V3.75A2.75,2.75,0,0,1,4.75,1H5.5a.5.5,0,0,1,0,1H4.75A1.75,1.75,0,0,0,3,3.75V5A2.5,2.5,0,0,1,2,7l-.667.5ZM14,7a2.5,2.5,0,0,1-1-2V3.75A1.75,1.75,0,0,0,11.25,2H10.5a.5.5,0,0,1,0-1h.75A2.75,2.75,0,0,1,14,3.75V5a1.5,1.5,0,0,0,.6,1.2l1.2.9a.5.5,0,0,1,0,.8l-1.2.9A1.5,1.5,0,0,0,14,10v2a3,3,0,0,1-3,3h-.5a.5.5,0,0,1,0-1H11a2,2,0,0,0,2-2V10a2.5,2.5,0,0,1,1-2l.667-.5Z"/></svg>