<svg xmlns="http://www.w3.org/2000/svg" viewBox="0 0 16 16"><defs><style>.skinbase80{fill:#517bcc;fill-opacity:0.8;}</style></defs><title>星与旗帜-上凹带形</title><path class="skinbase80" d="M15.027,8.5l.947-2.842A.5.5,0,0,0,15.5,5H13V3.5a.5.5,0,0,0-.5-.5h-9a.5.5,0,0,0-.5.5V5H.5a.5.5,0,0,0-.474.658L.973,8.5.026,11.342A.5.5,0,0,0,.5,12h5a.486.486,0,0,0,.252-.078.454.454,0,0,0,.057-.039.493.493,0,0,0,.152-.191v-.007A.5.5,0,0,0,6,11.5V10h4v1.5a.5.5,0,0,0,.037.185v.007a.494.494,0,0,0,.152.191.465.465,0,0,0,.057.039A.486.486,0,0,0,10.5,12h5a.5.5,0,0,0,.474-.658ZM4,4h8V9H4V4ZM1.194,11l.781-2.342a.5.5,0,0,0,0-.316L1.194,6H3V9.5a.464.464,0,0,0,.01.051.459.459,0,0,0,.014.072.5.5,0,0,0,.121.23h0L4.293,11ZM5,10.293,4.707,10H5Zm6,0V10h.293ZM14.806,11h-3.1l1.146-1.146h0a.5.5,0,0,0,.122-.231.459.459,0,0,0,.014-.072A.464.464,0,0,0,13,9.5V6h1.806l-.781,2.342a.5.5,0,0,0,0,.316Z"/></svg>