<svg xmlns="http://www.w3.org/2000/svg" viewBox="0 0 16 16"><defs><style type="text/css">.skinbase80{fill:#517bcc;fill-opacity:0.8;}</style></defs><title>星与旗帜-二十四角星</title><path class="skinbase80" d="M2,5.543V2.5A.5.5,0,0,1,2.5,2H5.543l2.1-2.1a.5.5,0,0,1,.707,0l2.1,2.1H13.5a.5.5,0,0,1,.5.5V5.543l2.1,2.1a.5.5,0,0,1,0,.707l-2.1,2.1V13.5a.5.5,0,0,1-.5.5H10.457l-2.1,2.1a.5.5,0,0,1-.707,0L5.543,14H2.5a.5.5,0,0,1-.5-.5V10.457l-2.1-2.1a.5.5,0,0,1,0-.707ZM3,3V5.75a.5.5,0,0,1-.146.354L.957,8l1.9,1.9A.5.5,0,0,1,3,10.25V13H5.75a.5.5,0,0,1,.354.146l1.9,1.9,1.9-1.9A.5.5,0,0,1,10.25,13H13V10.25a.5.5,0,0,1,.146-.354l1.9-1.9-1.9-1.9A.5.5,0,0,1,13,5.75V3H10.25A.5.5,0,0,1,9.9,2.854L8,.957l-1.9,1.9A.5.5,0,0,1,5.75,3Zm7,3H9.877L9.02,9H10ZM8.5,10A.5.5,0,0,1,8,9.5V9l.019-.137,1-3.5A.5.5,0,0,1,9.5,5h1a.5.5,0,0,1,.5.5V9a.5.5,0,0,1,0,1v.5a.5.5,0,0,1-1,0V10Zm-2,0a.5.5,0,0,1,0,1h-2a.5.5,0,0,1-.5-.5v-.12a1.5,1.5,0,0,1,.379-1l1.242-1.4A1.5,1.5,0,0,0,6,6.99V6.5a.5.5,0,0,0-1,0v.25a.5.5,0,0,1-1,0V6.5a1.5,1.5,0,0,1,3,0v.49a2.5,2.5,0,0,1-.631,1.661L5.169,10Z"/></svg>