<svg xmlns="http://www.w3.org/2000/svg" viewBox="0 0 16 16"><defs><style type="text/css">.skinbase80{fill:#517bcc;fill-opacity:0.8;}</style></defs><title>星与旗帜-前凸弯带形</title><path class="skinbase80" d="M15.005,6.565A16.077,16.077,0,0,0,16,2.5a.5.5,0,0,0-.724-.447,38.318,38.318,0,0,1-4.935,1.973c-.006,0-.008.007-.014.009a.493.493,0,0,0-.191.125.457.457,0,0,0-.033.049.483.483,0,0,0-.075.145.478.478,0,0,0-.016.077A.47.47,0,0,0,10,4.5V6.813A10.561,10.561,0,0,1,8,7a10.561,10.561,0,0,1-2-.187V4.5a.47.47,0,0,0-.014-.069.478.478,0,0,0-.016-.077A.485.485,0,0,0,5.9,4.209a.473.473,0,0,0-.033-.049.493.493,0,0,0-.191-.125c-.005,0-.008-.007-.014-.009A38.318,38.318,0,0,1,.724,2.053.5.5,0,0,0,0,2.5,16.077,16.077,0,0,0,.995,6.565a18.794,18.794,0,0,1-.959,2.75.5.5,0,0,0,.111.539A4.273,4.273,0,0,0,3,10.984V12.5a.5.5,0,0,0,.276.447A10.421,10.421,0,0,0,8,14a10.421,10.421,0,0,0,4.724-1.053A.5.5,0,0,0,13,12.5V10.984a4.273,4.273,0,0,0,2.854-1.131.5.5,0,0,0,.111-.539A18.794,18.794,0,0,1,15.005,6.565ZM11,5.707l.634.634c-.206.082-.42.149-.634.216Zm-7.854.439h0a.5.5,0,0,0-.112.185.466.466,0,0,0-.016.078A.476.476,0,0,0,3,6.5V9.972a3.553,3.553,0,0,1-1.905-.616A11.437,11.437,0,0,0,2,6.5l-.026-.158a28.448,28.448,0,0,1-.862-3q1.506.686,3.466,1.369ZM5,5.707v.851c-.214-.067-.428-.134-.634-.216Zm7,6.478A9.536,9.536,0,0,1,8,13a9.536,9.536,0,0,1-4-.815V7.254A10.659,10.659,0,0,0,8,8a10.659,10.659,0,0,0,4-.746Zm1-2.212V6.5a.476.476,0,0,0-.018-.089.466.466,0,0,0-.016-.078.5.5,0,0,0-.113-.186L11.421,4.714q1.961-.683,3.466-1.369a28.448,28.448,0,0,1-.862,3L14,6.5a11.437,11.437,0,0,0,.905,2.857A3.553,3.553,0,0,1,13,9.972Z"/></svg>