<svg xmlns="http://www.w3.org/2000/svg" viewBox="0 0 16 16"><defs><style type="text/css">.skinbase80{fill:#517bcc;fill-opacity:0.8;}</style></defs><title>星与旗帜-双波形</title><path class="skinbase80" d="M0,4.5a.5.5,0,0,1,.053-.224C.8,2.789,1.783,2,3,2c.834,0,1.249.332,1.9,1.2.474.632.684.8,1.1.8.368,0,.591-.147,1-.616l.185-.213A2.767,2.767,0,0,1,9.5,2a2.767,2.767,0,0,1,2.314,1.171L12,3.384c.41.469.633.616,1,.616.783,0,1.463-.544,2.053-1.724A.5.5,0,0,1,16,2.5v9a.5.5,0,0,1-.053.224C15.2,13.211,14.217,14,13,14a2.146,2.146,0,0,1-1.754-.958l-.185-.213a1.884,1.884,0,0,0-3.122,0l-.185.213A2.146,2.146,0,0,1,6,14a1.739,1.739,0,0,1-1.635-1.071l-.1-.164A1.256,1.256,0,0,0,3,12,1.871,1.871,0,0,0,.985,13.621.5.5,0,0,1,0,13.5Zm1,7.161A2.985,2.985,0,0,1,3,11a2.205,2.205,0,0,1,2.111,1.235l.1.168c.3.481.438.6.785.6.368,0,.591-.147,1-.616l.185-.213A2.767,2.767,0,0,1,9.5,11a2.767,2.767,0,0,1,2.314,1.171l.185.213c.41.469.633.616,1,.616.76,0,1.422-.512,2-1.62V4.106A2.731,2.731,0,0,1,13,5a2.146,2.146,0,0,1-1.754-.958l-.185-.213a1.884,1.884,0,0,0-3.122,0l-.185.213A2.146,2.146,0,0,1,6,5c-.834,0-1.249-.332-1.9-1.2C3.626,3.168,3.416,3,3,3c-.76,0-1.422.512-2,1.62Z"/></svg>