<svg xmlns="http://www.w3.org/2000/svg" viewBox="0 0 16 16"><defs><style type="text/css">.skinbase80{fill:#517bcc;fill-opacity:0.8;}</style></defs><title>星与旗帜-爆炸形1</title><path class="skinbase80" d="M1.857,8.436.084,5.777A.5.5,0,0,1,.5,5H4.155L6.033.072a.5.5,0,0,1,.876-.11L9.727,3.955l5.69-.948a.5.5,0,0,1,.511.75L13.06,8.538l2.9,6.765a.5.5,0,0,1-.657.657l-6.765-2.9L3.757,15.929A.5.5,0,0,1,3,15.5V11.86L.342,10.974a.5.5,0,0,1-.2-.828ZM1.434,6,2.916,8.223a.5.5,0,0,1-.062.631L1.426,10.281l2.232.744A.5.5,0,0,1,4,11.5v3.117l4.243-2.546A.5.5,0,0,1,8.7,12.04l5.851,2.508L12.04,8.7a.5.5,0,0,1,.031-.454l2.443-4.072-4.932.822a.5.5,0,0,1-.491-.2L6.633,1.305,4.967,5.678A.5.5,0,0,1,4.5,6Z"/></svg>