<svg xmlns="http://www.w3.org/2000/svg" viewBox="0 0 16 16"><defs><style type="text/css">.skinbase80{fill:#517bcc;fill-opacity:0.8;}</style></defs><title>星与旗帜-十字星</title><path class="skinbase80" d="M5.087,8.873.314,6.964A.5.5,0,0,1,.4,6.01l4.734-.947L7.036.314a.5.5,0,0,1,.928,0l1.9,4.749L14.6,6.01a.5.5,0,0,1,.088.955L9.913,8.873,7.981,15.637a.5.5,0,0,1-.962,0ZM2.247,6.66,5.686,8.036a.5.5,0,0,1,.3.327L7.5,13.68,9.019,8.363a.5.5,0,0,1,.3-.327L12.753,6.66,9.4,5.99a.5.5,0,0,1-.366-.3L7.5,1.846,5.964,5.686a.5.5,0,0,1-.366.3Z"/></svg>