<svg xmlns="http://www.w3.org/2000/svg" viewBox="0 0 16 16"><defs><style type="text/css">.skinbase80{fill:#517bcc;fill-opacity:0.8;}</style></defs><title>星与旗帜-六角星</title><path class="skinbase80" d="M2.969,8l-1.9-3.247A.5.5,0,0,1,1.5,4H5.311L7.068,1a.5.5,0,0,1,.863,0L9.689,4H13.5a.5.5,0,0,1,.432.753L12.031,8l1.9,3.247A.5.5,0,0,1,13.5,12H9.689L7.932,15a.5.5,0,0,1-.863,0L5.311,12H1.5a.5.5,0,0,1-.432-.753Zm-.6-3L3.98,7.747a.5.5,0,0,1,0,.505L2.372,11H5.6a.5.5,0,0,1,.432.247L7.5,13.76l1.471-2.513A.5.5,0,0,1,9.4,11h3.226L11.02,8.253a.5.5,0,0,1,0-.505L12.628,5H9.4a.5.5,0,0,1-.432-.247L7.5,2.24,6.029,4.753A.5.5,0,0,1,5.6,5Z"/></svg>