<svg xmlns="http://www.w3.org/2000/svg" viewBox="0 0 16 16"><defs><style type="text/css">.skinbase80{fill:#517bcc;fill-opacity:0.8;}</style></defs><title>星与旗帜-七角星</title><path class="skinbase80" d="M5.266,3,7.616.18a.5.5,0,0,1,.768,0L10.734,3H14.5a.5.5,0,0,1,.481.637l-.936,3.278,1.872,2.808a.5.5,0,0,1-.192.725l-2.794,1.4-.944,3.777a.5.5,0,0,1-.733.313L8,14.076,4.748,15.934a.5.5,0,0,1-.733-.313l-.944-3.777-2.794-1.4a.5.5,0,0,1-.167-.76L1.955,7.381l-.94-3.76A.5.5,0,0,1,1.5,3ZM8,1.281,5.884,3.82A.5.5,0,0,1,5.5,4H2.14l.845,3.379a.5.5,0,0,1-.095.434L1.277,9.829l2.447,1.223a.5.5,0,0,1,.261.326l.84,3.36,2.927-1.673a.5.5,0,0,1,.5,0l2.927,1.673.84-3.36a.5.5,0,0,1,.261-.326L14.77,9.806,13.084,7.277a.5.5,0,0,1-.065-.415L13.837,4H10.5a.5.5,0,0,1-.384-.18Z"/></svg>