<svg xmlns="http://www.w3.org/2000/svg" viewBox="0 0 16 16"><defs><style type="text/css">.skinbase80{fill:#517bcc;fill-opacity:0.8;}</style></defs><title>动作按钮-帮助</title><path class="skinbase80" d="M1.5,1h13A1.5,1.5,0,0,1,16,2.5v11A1.5,1.5,0,0,1,14.5,15H1.5A1.5,1.5,0,0,1,0,13.5V2.5A1.5,1.5,0,0,1,1.5,1Zm0,1a.5.5,0,0,0-.5.5v11a.5.5,0,0,0,.5.5h13a.5.5,0,0,0,.5-.5V2.5a.5.5,0,0,0-.5-.5ZM7,6.5a.5.5,0,0,1-.5.5H5.75a.5.5,0,0,1-.5-.5V5.75a2.75,2.75,0,0,1,5.5,0v.459a2.5,2.5,0,0,1-.676,1.71L9.01,9.053a.5.5,0,0,0-.135.342v.1a.5.5,0,0,1-.5.5h-.75a.5.5,0,0,1-.5-.5V9.4A1.5,1.5,0,0,1,7.531,8.37L8.594,7.235A1.5,1.5,0,0,0,9,6.209V5.75a1,1,0,0,0-2,0ZM7,12v-.25a1,1,0,0,1,2,0V12a1,1,0,0,1-2,0Z"/></svg>