<svg xmlns="http://www.w3.org/2000/svg" viewBox="0 0 16 16"><defs><style type="text/css">.skinbase80{fill:#517bcc;fill-opacity:0.8;}</style></defs><title>动作按钮-声音</title><path class="skinbase80" d="M1.5,1h13A1.5,1.5,0,0,1,16,2.5v11A1.5,1.5,0,0,1,14.5,15H1.5A1.5,1.5,0,0,1,0,13.5V2.5A1.5,1.5,0,0,1,1.5,1Zm0,1a.5.5,0,0,0-.5.5v11a.5.5,0,0,0,.5.5h13a.5.5,0,0,0,.5-.5V2.5a.5.5,0,0,0-.5-.5ZM5.645,6,8.157,3.636A.5.5,0,0,1,9,4v8a.5.5,0,0,1-.843.364L5.645,10H4A1,1,0,0,1,3,9V7A1,1,0,0,1,4,6ZM8,5.157,6.186,6.864A.5.5,0,0,1,5.844,7H4V9H5.844a.5.5,0,0,1,.343.136L8,10.843Zm2.168,4.586a.5.5,0,0,1,.164-.986l1.5.25a.5.5,0,1,1-.164.986Zm.164-2.5a.5.5,0,0,1-.164-.986l1.5-.25a.5.5,0,1,1,.164.986Zm-.36,4.673a.5.5,0,1,1,.555-.832l1.5,1a.5.5,0,1,1-.555.832Zm.555-7a.5.5,0,0,1-.555-.832l1.5-1a.5.5,0,0,1,.555.832Z"/></svg>