<svg xmlns="http://www.w3.org/2000/svg" viewBox="0 0 16 16"><defs><style type="text/css">.skinbase80{fill:#517bcc;fill-opacity:0.8;}</style></defs><title>动作按钮-第一张</title><path class="skinbase80" d="M1.5,1h13A1.5,1.5,0,0,1,16,2.5v11A1.5,1.5,0,0,1,14.5,15H1.5A1.5,1.5,0,0,1,0,13.5V2.5A1.5,1.5,0,0,1,1.5,1Zm0,1a.5.5,0,0,0-.5.5v11a.5.5,0,0,0,.5.5h13a.5.5,0,0,0,.5-.5V2.5a.5.5,0,0,0-.5-.5ZM8.456,3.732l3.37,2.888A.5.5,0,0,1,12,7v4.5a.5.5,0,0,1-.5.5h-7a.5.5,0,0,1-.5-.5V7a.5.5,0,0,1,.175-.38l3.37-2.888A.7.7,0,0,1,8.456,3.732ZM8,4.659,5,7.23V11h6V7.23ZM7.5,10A.5.5,0,0,1,7,9.5v-1A.5.5,0,0,1,7.5,8h1a.5.5,0,0,1,.5.5v1a.5.5,0,0,1-.5.5Z"/></svg>