<svg xmlns="http://www.w3.org/2000/svg" viewBox="0 0 16 16"><defs><style type="text/css">.skinbase80{fill:#517bcc;fill-opacity:0.8;}</style></defs><title>动作按钮-上一张</title><path class="skinbase80" d="M14.5,15H1.5A1.5,1.5,0,0,1,0,13.5V2.5A1.5,1.5,0,0,1,1.5,1h13A1.5,1.5,0,0,1,16,2.5v11A1.5,1.5,0,0,1,14.5,15ZM1.5,2a.5.5,0,0,0-.5.5v11a.5.5,0,0,0,.5.5h13a.5.5,0,0,0,.5-.5V2.5a.5.5,0,0,0-.5-.5Zm7,10h-2A2.5,2.5,0,0,1,4,9.5v-2A.5.5,0,0,1,4.5,7h2a.5.5,0,0,1,.5.5V9H8V6H7.5a.5.5,0,0,1-.354-.854l2-2a.5.5,0,0,1,.707,0l2,2A.5.5,0,0,1,11.5,6H11V9.5A2.5,2.5,0,0,1,8.5,12ZM5,8V9.5A1.5,1.5,0,0,0,6.5,11h2A1.5,1.5,0,0,0,10,9.5v-4a.5.5,0,0,1,.324-.468L9.5,4.207l-.825.825A.5.5,0,0,1,9,5.5v4a.5.5,0,0,1-.5.5h-2A.5.5,0,0,1,6,9.5V8Z"/></svg>