<svg xmlns="http://www.w3.org/2000/svg" viewBox="0 0 16 16"><defs><style type="text/css">.skinbase80{fill:#517bcc;fill-opacity:0.8;}</style></defs><title>公式形状-乘号</title><path class="skinbase80" d="M5.293,8,1.146,3.854a.5.5,0,0,1,0-.707l2-2a.5.5,0,0,1,.707,0L8,5.293l4.146-4.146a.5.5,0,0,1,.707,0l2,2a.5.5,0,0,1,0,.707L10.707,8l4.146,4.146a.5.5,0,0,1,0,.707l-2,2a.5.5,0,0,1-.707,0L8,10.707,3.854,14.854a.5.5,0,0,1-.707,0l-2-2a.5.5,0,0,1,0-.707ZM3.5,2.207,2.207,3.5,6.354,7.646a.5.5,0,0,1,0,.707L2.207,12.5,3.5,13.793,7.646,9.646a.5.5,0,0,1,.707,0L12.5,13.793,13.793,12.5,9.646,8.354a.5.5,0,0,1,0-.707L13.793,3.5,12.5,2.207,8.354,6.354a.5.5,0,0,1-.707,0Z"/></svg>