<svg xmlns="http://www.w3.org/2000/svg" viewBox="0 0 16 16"><defs><style type="text/css">.skinbase80{fill:#517bcc;fill-opacity:0.8;}</style></defs><title>星与旗帜-竖卷轴</title><path class="skinbase80" d="M0,13a2,2,0,0,1,3-1.732V3A2,2,0,0,1,5,1h9a2,2,0,0,1,0,4v7.5A2.5,2.5,0,0,1,11.5,15H2A2,2,0,0,1,0,13Zm11.5,1A1.5,1.5,0,0,0,13,12.5V5H5a1.991,1.991,0,0,1-1-.268V13a1.991,1.991,0,0,1-.268,1ZM7,3a1.991,1.991,0,0,1-.268,1H14a1,1,0,0,0,0-2H6.732A1.991,1.991,0,0,1,7,3ZM5,4A1,1,0,1,0,4,3,1,1,0,0,0,5,4ZM2,14a1,1,0,1,0-1-1A1,1,0,0,0,2,14Z"/></svg>