<svg xmlns="http://www.w3.org/2000/svg" viewBox="0 0 16 16"><defs><style type="text/css">.skinbase80{fill:#517bcc;fill-opacity:0.8;}</style></defs><title>星与旗帜-爆炸形2</title><path class="skinbase80" d="M2.6,7.5.223,5.916A.5.5,0,0,1,.5,5H3.761L2.036.686A.5.5,0,0,1,2.812.11L7.2,3.623,8.015.379A.5.5,0,0,1,8.99.4l.889,4.445,5.463-1.821a.5.5,0,0,1,.512.828L12.478,7.229l3.143.786a.5.5,0,0,1,0,.97l-3.312.828,3.606,5.41a.5.5,0,0,1-.664.711L8.635,12.153,5.9,15.8a.5.5,0,0,1-.9-.3V12.14l-3.379.845a.5.5,0,0,1-.537-.762L2.566,10H.5a.5.5,0,0,1-.277-.916ZM2.151,6,3.777,7.084a.5.5,0,0,1,0,.832L2.151,9H3.5a.5.5,0,0,1,.416.777L2.633,11.7l2.745-.686A.5.5,0,0,1,6,11.5V14l2.1-2.8a.5.5,0,0,1,.648-.134l5.161,2.949L11.084,9.777a.5.5,0,0,1,.295-.762l2.06-.515-2.06-.515a.5.5,0,0,1-.232-.839l2.5-2.5L9.658,5.974A.5.5,0,0,1,9.01,5.6l-.564-2.82L7.985,4.621a.5.5,0,0,1-.8.269L3.669,2.075l1.3,3.239A.5.5,0,0,1,4.5,6Z"/></svg>