<svg xmlns="http://www.w3.org/2000/svg" viewBox="0 0 16 16"><defs><style type="text/css">.skinbase80{fill:#517bcc;fill-opacity:0.8;}</style></defs><title>星与旗帜-横卷轴</title><path class="skinbase80" d="M3,3h8.268A2,2,0,1,1,15,2v9.5A2.5,2.5,0,0,1,12.5,14H5a2,2,0,0,1-4,0V5A2,2,0,0,1,3,3ZM5,5v8h7.5A1.5,1.5,0,0,0,14,11.5V3.732A1.991,1.991,0,0,1,13,4H4.732A1.991,1.991,0,0,1,5,5ZM4,5A1,1,0,1,0,3,6,1,1,0,0,0,4,5ZM14,2a1,1,0,1,0-1,1A1,1,0,0,0,14,2ZM3,7a1.991,1.991,0,0,1-1-.268V14a1,1,0,0,0,2,0V6.732A1.991,1.991,0,0,1,3,7Z"/></svg>