<svg xmlns="http://www.w3.org/2000/svg" viewBox="0 0 16 16"><defs><style>.skinbase80{fill:#517bcc;fill-opacity:0.8;}</style></defs><title>星与旗帜-前凸带形</title><path class="skinbase80" d="M15.027,7.5l.947-2.842A.5.5,0,0,0,15.5,4h-5a.486.486,0,0,0-.252.078.452.452,0,0,0-.057.039.493.493,0,0,0-.152.191v.007A.5.5,0,0,0,10,4.5V6H6V4.5a.5.5,0,0,0-.037-.185V4.308a.494.494,0,0,0-.152-.191.45.45,0,0,0-.057-.039A.486.486,0,0,0,5.5,4H.5a.5.5,0,0,0-.474.658L.973,7.5.026,10.342A.5.5,0,0,0,.5,11H3v1.5a.5.5,0,0,0,.5.5h9a.5.5,0,0,0,.5-.5V11h2.5a.5.5,0,0,0,.474-.658ZM11,5.707,11.293,6H11Zm-6,0V6H4.707ZM1.194,10l.781-2.342a.5.5,0,0,0,0-.316L1.194,5h3.1L3.146,6.146h0a.5.5,0,0,0-.121.23.459.459,0,0,0-.014.072A.464.464,0,0,0,3,6.5V10ZM12,12H4V7h8v5Zm2.806-2H13V6.5a.464.464,0,0,0-.01-.051.459.459,0,0,0-.014-.072.5.5,0,0,0-.122-.231L11.707,5h3.1l-.781,2.342a.5.5,0,0,0,0,.316Z"/></svg>