<svg xmlns="http://www.w3.org/2000/svg" viewBox="0 0 16 16"><defs><style type="text/css">.skinbase80{fill:#517bcc;fill-opacity:0.8;}</style></defs><title>星与旗帜-上凹弯带形</title><path class="skinbase80" d="M14.8,9.528c.2-.354.574-.942,1.113-1.751a.5.5,0,0,0-.062-.631A11.564,11.564,0,0,0,13,5.193V3.5a.5.5,0,0,0-.276-.447A10.421,10.421,0,0,0,8,2,10.421,10.421,0,0,0,3.276,3.053.5.5,0,0,0,3,3.5V5.193A11.564,11.564,0,0,0,.146,7.146a.5.5,0,0,0-.062.631C.623,8.586,1,9.174,1.2,9.528A13.034,13.034,0,0,0,0,13.5a.5.5,0,0,0,.724.447,38.318,38.318,0,0,1,4.935-1.973c.006,0,.008-.007.014-.009a.493.493,0,0,0,.191-.125.464.464,0,0,0,.033-.049.485.485,0,0,0,.075-.145.478.478,0,0,0,.016-.077A.47.47,0,0,0,6,11.5V9.187a10.771,10.771,0,0,1,4,0V11.5a.47.47,0,0,0,.014.069.478.478,0,0,0,.016.077.484.484,0,0,0,.075.144.461.461,0,0,0,.033.05.494.494,0,0,0,.19.125c.005,0,.008.007.014.009a38.318,38.318,0,0,1,4.935,1.973A.5.5,0,0,0,16,13.5,13.034,13.034,0,0,0,14.8,9.528ZM1.147,12.638A24.67,24.67,0,0,1,2.212,9.692.5.5,0,0,0,2.2,9.276c-.158-.315-.5-.877-1.046-1.7A10.87,10.87,0,0,1,3,6.329V9.5a.476.476,0,0,0,.018.089.466.466,0,0,0,.016.078.5.5,0,0,0,.112.185h0l1.432,1.432Q2.641,11.961,1.147,12.638ZM5,10.293l-.634-.634c.206-.082.42-.149.634-.216ZM8,8a10.659,10.659,0,0,0-4,.746V3.815A9.536,9.536,0,0,1,8,3a9.536,9.536,0,0,1,4,.815v4.93A10.659,10.659,0,0,0,8,8Zm3,1.442c.214.067.428.134.634.216L11,10.293Zm.421,1.843,1.432-1.432h0a.5.5,0,0,0,.112-.185.466.466,0,0,0,.016-.078A.476.476,0,0,0,13,9.5V6.329a10.87,10.87,0,0,1,1.849,1.248c-.542.823-.889,1.384-1.046,1.7a.5.5,0,0,0-.014.416,24.67,24.67,0,0,1,1.064,2.946Q13.359,11.96,11.421,11.286Z"/></svg>