<svg xmlns="http://www.w3.org/2000/svg" viewBox="0 0 16 16"><defs><style type="text/css">.skinbase80{fill:#517bcc;fill-opacity:0.8;}</style></defs><title>星与旗帜-波形</title><path class="skinbase80" d="M0,4.5a.5.5,0,0,1,.1-.3A4.815,4.815,0,0,1,4,2,8,8,0,0,1,8.224,3.053,7.05,7.05,0,0,0,12,4a3.836,3.836,0,0,0,3.1-1.8.5.5,0,0,1,.9.3v9a.5.5,0,0,1-.1.3A4.815,4.815,0,0,1,12,14a8,8,0,0,1-4.224-1.053A7.05,7.05,0,0,0,4,12,3.836,3.836,0,0,0,.9,13.8a.5.5,0,0,1-.9-.3Zm1,.17v7.535A4.388,4.388,0,0,1,4,11a8,8,0,0,1,4.224,1.053A7.05,7.05,0,0,0,12,13a3.764,3.764,0,0,0,3-1.67V3.795A4.388,4.388,0,0,1,12,5,8,8,0,0,1,7.776,3.947,7.05,7.05,0,0,0,4,3,3.764,3.764,0,0,0,1,4.67Z"/></svg>