<svg xmlns="http://www.w3.org/2000/svg" viewBox="0 0 16 16"><defs><style type="text/css">.skinbase80{fill:#517bcc;fill-opacity:0.8;}</style></defs><title>动作按钮-开始</title><path class="skinbase80" d="M15,2.707l-1,1V12.5a.5.5,0,0,1-.5.5H2.707l-1,1H14.5a.5.5,0,0,0,.5-.5ZM14.293,2H1.5a.5.5,0,0,0-.5.5V13.293l1-1V3.5A.5.5,0,0,1,2.5,3H13.293ZM1.5,1h13A1.5,1.5,0,0,1,16,2.5v11A1.5,1.5,0,0,1,14.5,15H1.5A1.5,1.5,0,0,1,0,13.5V2.5A1.5,1.5,0,0,1,1.5,1ZM3,4v8H13V4Zm3,6.5a.5.5,0,0,1-1,0v-5a.5.5,0,0,1,1,0Zm4.3-5.311a.7.7,0,0,1,.7.7v4.223a.7.7,0,0,1-1.107.57L6.937,8.57a.7.7,0,0,1,0-1.139L9.893,5.319A.7.7,0,0,1,10.3,5.189ZM10,6.472,7.86,8,10,9.528Z"/></svg>