<svg xmlns="http://www.w3.org/2000/svg" viewBox="0 0 16 16"><defs><style type="text/css">.skinbase80{fill:#517bcc;fill-opacity:0.8;}</style></defs><title>动作按钮-影片</title><path class="skinbase80" d="M1.5,1h13A1.5,1.5,0,0,1,16,2.5v11A1.5,1.5,0,0,1,14.5,15H1.5A1.5,1.5,0,0,1,0,13.5V2.5A1.5,1.5,0,0,1,1.5,1Zm0,1a.5.5,0,0,0-.5.5v11a.5.5,0,0,0,.5.5h13a.5.5,0,0,0,.5-.5V2.5a.5.5,0,0,0-.5-.5ZM12.2,5.1a.5.5,0,0,1,.8.4v5a.5.5,0,0,1-.8.4L10,9.208V10a1,1,0,0,1-1,1H4a1,1,0,0,1-1-1V6A1,1,0,0,1,4,5H9a1,1,0,0,1,1,1v.792ZM12,9.485V6.515L10.07,8ZM9,7.808V6H4v4H9V8.192A.5.5,0,0,1,9.037,8,.5.5,0,0,1,9,7.808ZM6.25,8a.5.5,0,0,1,0-1h1.5a.5.5,0,0,1,0,1Z"/></svg>