<svg xmlns="http://www.w3.org/2000/svg" viewBox="0 0 16 16"><defs><style type="text/css">.skinbase80{fill:#517bcc;fill-opacity:0.8;}</style></defs><title>动作按钮-文档</title><path class="skinbase80" d="M11,8H8.5A.5.5,0,0,1,8,7.5V5H5v6h6ZM9,7h1.293L9,5.707ZM1.5,1h13A1.5,1.5,0,0,1,16,2.5v11A1.5,1.5,0,0,1,14.5,15H1.5A1.5,1.5,0,0,1,0,13.5V2.5A1.5,1.5,0,0,1,1.5,1Zm0,1a.5.5,0,0,0-.5.5v11a.5.5,0,0,0,.5.5h13a.5.5,0,0,0,.5-.5V2.5a.5.5,0,0,0-.5-.5ZM5,4H8.293A1,1,0,0,1,9,4.293l2.854,2.854A.5.5,0,0,1,12,7.5V11a1,1,0,0,1-1,1H5a1,1,0,0,1-1-1V5A1,1,0,0,1,5,4Z"/></svg>