<svg xmlns="http://www.w3.org/2000/svg" viewBox="0 0 16 16"><defs><style type="text/css">.skinbase80{fill:#517bcc;fill-opacity:0.8;}</style></defs><title>箭头总汇-左右箭头标注</title><path class="skinbase80" d="M4,6H5V1.5A.5.5,0,0,1,5.5,1h5a.5.5,0,0,1,.5.5V6h1V5.25a.5.5,0,0,1,.838-.369l3,2.75a.5.5,0,0,1,0,.737l-3,2.75A.5.5,0,0,1,12,10.75V10H11v4.5a.5.5,0,0,1-.5.5h-5a.5.5,0,0,1-.5-.5V10H4v.75a.5.5,0,0,1-.838.369l-3-2.75a.5.5,0,0,1,0-.737l3-2.75A.5.5,0,0,1,4,5.25ZM6,2V6.5a.5.5,0,0,1-.5.5h-2A.5.5,0,0,1,3,6.5V6.387L1.24,8,3,9.613V9.5A.5.5,0,0,1,3.5,9h2a.5.5,0,0,1,.5.5V14h4V9.5a.5.5,0,0,1,.5-.5h2a.5.5,0,0,1,.5.5v.113L14.76,8,13,6.387V6.5a.5.5,0,0,1-.5.5h-2a.5.5,0,0,1-.5-.5V2Z"/></svg>