<svg xmlns="http://www.w3.org/2000/svg" viewBox="0 0 16 16"><defs><style type="text/css">.skinbase80{fill:#517bcc;fill-opacity:0.8;}</style></defs><title>箭头总汇-圆角右箭头</title><path class="skinbase80" d="M7.5,8A1.5,1.5,0,0,0,6,9.5v5a.5.5,0,0,1-.5.5h-4a.5.5,0,0,1-.5-.5v-5A6.5,6.5,0,0,1,7.5,3H9V1.354A.9.9,0,0,1,10.476.663L15.82,5.116a.5.5,0,0,1,0,.768l-5.344,4.453A.9.9,0,0,1,9,9.646V8ZM10,3.5a.5.5,0,0,1-.5.5h-2A5.5,5.5,0,0,0,2,9.5V14H5V9.5A2.5,2.5,0,0,1,7.5,7h2a.5.5,0,0,1,.5.5V9.432L14.719,5.5,10,1.568Z"/></svg>