<svg xmlns="http://www.w3.org/2000/svg" viewBox="0 0 16 16"><defs><style type="text/css">.skinbase80{fill:#517bcc;fill-opacity:0.8;}</style></defs><title>箭头总汇-左弧形箭头</title><path class="skinbase80" d="M2,9V5A5,5,0,0,1,7,0h3.5a.5.5,0,0,1,.5.5v4a.5.5,0,0,1-.5.5H7A4,4,0,0,0,3.535,7,4,4,0,0,0,7,9H9V7.5a.5.5,0,0,1,.812-.39l5,4a.5.5,0,0,1,0,.781l-5,4A.5.5,0,0,1,9,15.5V14H7A5,5,0,0,1,2,9Zm1.1-.875A4,4,0,0,0,7,13H9.5a.5.5,0,0,1,.5.5v.96l3.7-2.96L10,8.54V9.5a.5.5,0,0,1-.5.5H7A5,5,0,0,1,3.1,8.125ZM7,4h3V1H7A4,4,0,0,0,3.1,5.875,5,5,0,0,1,7,4Z"/></svg>