<svg xmlns="http://www.w3.org/2000/svg" viewBox="0 0 16 16"><defs><style type="text/css">.skinbase80{fill:#517bcc;fill-opacity:0.8;}</style></defs><title>箭头总汇-直角双向箭头</title><path class="skinbase80" d="M14,6h1.5a.5.5,0,0,0,.39-.812l-4-5a.5.5,0,0,0-.781,0l-4,5A.5.5,0,0,0,7.5,6H9V9H6V7.5a.5.5,0,0,0-.812-.39l-5,4a.5.5,0,0,0,0,.781l5,4A.5.5,0,0,0,6,15.5V14h7.5a.5.5,0,0,0,.5-.5Zm-1,7H5.5a.5.5,0,0,0-.5.5v.96L1.3,11.5,5,8.54V9.5a.5.5,0,0,0,.5.5h4a.5.5,0,0,0,.5-.5v-4A.5.5,0,0,0,9.5,5H8.54L11.5,1.3,14.46,5H13.5a.5.5,0,0,0-.5.5Z"/></svg>