<svg xmlns="http://www.w3.org/2000/svg" viewBox="0 0 16 16"><defs><style type="text/css">.skinbase80{fill:#517bcc;fill-opacity:0.8;}</style></defs><title>箭头总汇-上弧形箭头</title><path class="skinbase80" d="M9,2a5,5,0,0,1,5,5V9h1.5a.5.5,0,0,1,.39.812l-4,5a.5.5,0,0,1-.781,0l-4-5A.5.5,0,0,1,7.5,9H9V7A4,4,0,0,0,7,3.535,4,4,0,0,0,5,7v3.5a.5.5,0,0,1-.5.5H.5a.5.5,0,0,1-.5-.5V7A5,5,0,0,1,5,2Zm1,5V9.5a.5.5,0,0,1-.5.5H8.54l2.96,3.7L14.46,10H13.5a.5.5,0,0,1-.5-.5V7A4,4,0,0,0,8.125,3.1,5,5,0,0,1,10,7ZM5,3A4,4,0,0,0,1,7v3H4V7A5,5,0,0,1,5.875,3.1,4.017,4.017,0,0,0,5,3Z"/></svg>