<svg xmlns="http://www.w3.org/2000/svg" viewBox="0 0 16 16"><defs><style type="text/css">.skinbase80{fill:#517bcc;fill-opacity:0.8;}</style></defs><title>箭头总汇-右弧形箭头</title><path class="skinbase80" d="M13,9a5,5,0,0,1-5,5H6v1.5a.5.5,0,0,1-.812.39l-5-4a.5.5,0,0,1,0-.781l5-4A.5.5,0,0,1,6,7.5V9H8a4,4,0,0,0,3.465-2A4,4,0,0,0,8,5H4.5A.5.5,0,0,1,4,4.5V.5A.5.5,0,0,1,4.5,0H8a5,5,0,0,1,5,5ZM8,10H5.5A.5.5,0,0,1,5,9.5V8.54L1.3,11.5,5,14.46V13.5a.5.5,0,0,1,.5-.5H8a4,4,0,0,0,3.9-4.875A5,5,0,0,1,8,10Zm4-5A4,4,0,0,0,8,1H5V4H8a5,5,0,0,1,3.9,1.875A4.017,4.017,0,0,0,12,5Z"/></svg>