<svg xmlns="http://www.w3.org/2000/svg" viewBox="0 0 16 16"><defs><style type="text/css">.skinbase80{fill:#517bcc;fill-opacity:0.8;}</style></defs><title>流程图-直接访问存储器</title><path class="skinbase80" d="M13.5,13c.691,0,1.5-2.226,1.5-5s-.809-5-1.5-5a.337.337,0,0,0-.07.007L13.4,3.02c-.351.134-.7.719-.954,1.584a11.813,11.813,0,0,0-.435,2.824Q12,7.709,12,8t.011.573a11.816,11.816,0,0,0,.435,2.824c.259.864.6,1.45.954,1.584l.029.012A.337.337,0,0,0,13.5,13ZM13,14H2.5C.981,14,0,11.3,0,8S.981,2,2.5,2H13a1,1,0,0,1,.236.028A1.253,1.253,0,0,1,13.5,2C15.018,2,16,4.7,16,8s-.982,6-2.5,6a1.253,1.253,0,0,1-.264-.028A1,1,0,0,1,13,14ZM11,8a10.109,10.109,0,0,1,1.059-5H2.5C1.809,3,1,5.226,1,8s.809,5,1.5,5h9.559A10.109,10.109,0,0,1,11,8Z"/></svg>