<svg xmlns="http://www.w3.org/2000/svg" viewBox="0 0 16 16"><defs><style type="text/css">.skinbase80{fill:#517bcc;fill-opacity:0.8;}</style></defs><title>流程图-文档</title><path class="skinbase80" d="M0,2.5A.5.5,0,0,1,.5,2h15a.5.5,0,0,1,.5.5v9a.5.5,0,0,1-.777.416A5.664,5.664,0,0,0,12,11c-1.5,0-2.232.439-3.646,1.854C6.768,14.439,5.833,15,4,15A6.659,6.659,0,0,1,.223,13.916.5.5,0,0,1,0,13.5ZM1,3V13.225A5.73,5.73,0,0,0,4,14c1.5,0,2.232-.439,3.646-1.854C9.232,10.561,10.167,10,12,10a6.885,6.885,0,0,1,3,.642V3Z"/></svg>