<svg xmlns="http://www.w3.org/2000/svg" viewBox="0 0 16 16"><defs><style type="text/css">.skinbase80{fill:#517bcc;fill-opacity:0.8;}</style></defs><title>流程图-多文档</title><path class="skinbase80" d="M13,7.5V4H3V5h8.5a.5.5,0,0,1,.5.5V9.11A3.781,3.781,0,0,1,13,9.5v-2Zm2,0V2H5V3h8.5a.5.5,0,0,1,.5.5V7.11A3.781,3.781,0,0,1,15,7.5Zm-4,2V6H1v7.284A2.9,2.9,0,0,0,3,14a2.792,2.792,0,0,0,2.616-1.32A3.728,3.728,0,0,1,9,11a4.025,4.025,0,0,1,2,.5v-2Zm3-1.354V10.5a.5.5,0,0,1-.854.354A2.806,2.806,0,0,0,12,10.146V12.5a.5.5,0,0,1-.854.354A2.893,2.893,0,0,0,9,12a2.792,2.792,0,0,0-2.616,1.32A3.728,3.728,0,0,1,3,15,3.891,3.891,0,0,1,.146,13.854.5.5,0,0,1,0,13.5v-8A.5.5,0,0,1,.5,5H2V3.5A.5.5,0,0,1,2.5,3H4V1.5A.5.5,0,0,1,4.5,1h11a.5.5,0,0,1,.5.5v7a.5.5,0,0,1-.854.354A2.806,2.806,0,0,0,14,8.146Z"/></svg>