<svg xmlns="http://www.w3.org/2000/svg" viewBox="0 0 16 16"><defs><style type="text/css">.skinbase80{fill:#517bcc;fill-opacity:0.8;}</style></defs><title>流程图-汇总连接</title><path class="skinbase80" d="M11.646,12.354,7.5,8.207,3.354,12.354a.5.5,0,0,1-.093.074,6.5,6.5,0,0,0,8.479,0A.5.5,0,0,1,11.646,12.354ZM14,7.5a6.475,6.475,0,0,0-1.573-4.24.5.5,0,0,1-.074.093L8.207,7.5l4.146,4.146a.5.5,0,0,1,.074.093A6.475,6.475,0,0,0,14,7.5ZM1,7.5a6.475,6.475,0,0,0,1.573,4.24.5.5,0,0,1,.074-.093L6.793,7.5,2.646,3.354a.5.5,0,0,1-.074-.093A6.475,6.475,0,0,0,1,7.5ZM3.354,2.646,7.5,6.793l4.146-4.146a.5.5,0,0,1,.093-.074,6.5,6.5,0,0,0-8.479,0A.5.5,0,0,1,3.354,2.646ZM7.5,15A7.5,7.5,0,1,1,15,7.5,7.5,7.5,0,0,1,7.5,15Z"/></svg>