<svg xmlns="http://www.w3.org/2000/svg" viewBox="0 0 16 16"><defs><style type="text/css">.skinbase80{fill:#517bcc;fill-opacity:0.8;}</style></defs><title>流程图-资料带</title><path class="skinbase80" d="M0,1.5a.5.5,0,0,1,.9-.3A3.836,3.836,0,0,0,4,3a7.05,7.05,0,0,0,3.776-.947A8,8,0,0,1,12,1a4.815,4.815,0,0,1,3.9,2.2.5.5,0,0,1,.1.3v11a.5.5,0,0,1-.9.3A3.836,3.836,0,0,0,12,13a7.05,7.05,0,0,0-3.776.947A8,8,0,0,1,4,15,4.815,4.815,0,0,1,.1,12.8a.5.5,0,0,1-.1-.3ZM1,12.33A3.764,3.764,0,0,0,4,14a7.05,7.05,0,0,0,3.776-.947A8,8,0,0,1,12,12a4.388,4.388,0,0,1,3,1.205V3.67A3.764,3.764,0,0,0,12,2a7.05,7.05,0,0,0-3.776.947A8,8,0,0,1,4,4,4.388,4.388,0,0,1,1,2.795Z"/></svg>