<?xml version="1.0" encoding="UTF-8"?>
<svg width="33px" height="37px" viewBox="0 0 33 37" version="1.1" xmlns="http://www.w3.org/2000/svg" xmlns:xlink="http://www.w3.org/1999/xlink">
    <!-- Generator: Sketch 52.2 (67145) - http://www.bohemiancoding.com/sketch -->
    <title>主程序LOGO</title>
    <desc>Created with Sketch.</desc>
    <g id="图标需求" stroke="none" stroke-width="1" fill="none" fill-rule="evenodd">
        <g id="用户协议" transform="translate(-809.000000, -297.000000)">
            <g id="主程序LOGO" transform="translate(809.000000, 297.000000)">
                <path d="M18.2440005,0.445480986 L31.4868314,7.71978196 C32.6170916,8.34002487 33.0219659,9.32969182 32.9990879,10.5369859 L32.9990879,25.8605043 C32.9814895,27.0996624 32.8184839,28.0468439 31.7577375,28.7581429 L18.5237058,36.0279076 C17.2016226,36.7760494 15.7545903,36.588848 14.2799505,35.9157196 L1.36148098,28.8193263 C0.402255666,28.4165999 -0.0328659203,27.500176 0.00860041892,26.1156381 L0.00860041892,10.4036658 C-0.0746333637,9.34851821 0.451464581,8.33894824 1.36148098,7.80751878 L14.7420197,0.45754065 C15.7628396,-0.131833951 16.9220272,-0.168676779 18.2440005,0.445480986 Z" id="形状_25_拷贝_3" fill="#2A76E6"></path>
                <path d="M17.9110762,14.8157277 L18.7763524,13.1852689 C19.1856942,12.4139372 19.9584268,11.9361702 20.7966244,11.9361702 L26.9275464,11.9361702 C27.5668491,11.9361702 28.0851064,12.4826874 28.0851064,13.1568504 C28.0851064,13.3538566 28.0398896,13.5479359 27.9533177,13.7225128 L21.5724567,26.5898693 C21.2169538,27.3067604 20.3776576,27.5840087 19.6978362,27.2091207 C19.4527913,27.0739905 19.2515695,26.8648091 19.1199359,26.6083609 C18.0986788,24.6187509 17.3327361,23.1265433 16.8221075,22.1317383 C16.81569,22.1192357 16.7742187,22.0406481 16.6976936,21.8959757 L17.6141803,20.1714605 L17.7159183,20.3538815 L20.3344834,24.8716122 L25.7805804,13.8892585 L20.806804,13.8964574 C20.6391645,13.8964574 20.4744384,13.9848119 20.39257,14.1390783 L17.4279536,19.7253695 L14.9605693,24.3681453 L14.9632902,24.3695886 L13.761997,26.6332114 C13.6285353,26.8846964 13.4276924,27.0890795 13.1846108,27.2207753 C12.5022365,27.5904695 11.6648634,27.3068283 11.3142858,26.587245 L5.04283018,13.7146759 C4.95875119,13.5420983 4.91489362,13.3508717 4.91489362,13.1568504 C4.91489362,12.4826874 5.43315086,11.9361702 6.07245356,11.9361702 L12.3154078,11.9361702 C13.1652849,11.9361702 13.9468388,12.4272214 14.3514,13.2153864 L16.2801203,17.0938219 L15.2898701,18.957135 L12.7226062,14.1451018 C12.641694,13.9874688 12.4853832,13.8892585 12.3154078,13.8892585 L7.21011539,13.8892585 L12.5672732,24.8851722 L15.7714964,18.8473845 L17.9134382,14.8169807 L17.9110762,14.8157277 Z" id="Combined-Shape" fill="#FFFFFF" fill-rule="nonzero"></path>
            </g>
        </g>
    </g>
</svg>