<svg xmlns="http://www.w3.org/2000/svg" viewBox="0 0 16 16"><defs><style type="text/css">.skinbase80{fill:#517bcc;fill-opacity:0.8;}</style></defs><title>公式形状-不等于号</title><path class="skinbase80" d="M7.076,3,8.029.332A.5.5,0,0,1,8.658.026l3,1a.5.5,0,0,1,.313.643L11.5,3h4a.5.5,0,0,1,.5.5v3a.5.5,0,0,1-.5.5H10.067L9.352,9H15.5a.5.5,0,0,1,.5.5v3a.5.5,0,0,1-.5.5H7.924l-.953,2.668a.5.5,0,0,1-.629.306l-3-1a.5.5,0,0,1-.313-.643L3.5,13H.5a.5.5,0,0,1-.5-.5v-3A.5.5,0,0,1,.5,9H4.933l.714-2H.5A.5.5,0,0,1,0,6.5v-3A.5.5,0,0,1,.5,3Zm1.73-1.871L7.9,3.668A.5.5,0,0,1,7.429,4H1V6H6.357a.5.5,0,0,1,.471.668l-1.071,3A.5.5,0,0,1,5.286,10H1v2H4.214a.5.5,0,0,1,.471.668l-.543,1.519,2.051.684L7.1,12.332A.5.5,0,0,1,7.571,12H15V10H8.643a.5.5,0,0,1-.471-.668l1.071-3A.5.5,0,0,1,9.714,6H15V4H10.786a.5.5,0,0,1-.471-.668l.543-1.519Z"/></svg>