<svg xmlns="http://www.w3.org/2000/svg" viewBox="0 0 16 16"><defs><style type="text/css">.skinbase80{fill:#517bcc;fill-opacity:0.8;}</style></defs><title>箭头总汇-丁字箭头</title><path class="skinbase80" d="M6,9V5H5.25a.5.5,0,0,1-.369-.838l2.75-3a.5.5,0,0,1,.737,0l2.75,3A.5.5,0,0,1,10.75,5H10V9h2V8.25a.5.5,0,0,1,.838-.369l3,2.75a.5.5,0,0,1,0,.737l-3,2.75A.5.5,0,0,1,12,13.75V13H4v.75a.5.5,0,0,1-.838.369l-3-2.75a.5.5,0,0,1,0-.737l3-2.75A.5.5,0,0,1,4,8.25V9Zm.387-5H6.5a.5.5,0,0,1,.5.5v5a.5.5,0,0,1-.5.5h-3A.5.5,0,0,1,3,9.5V9.387L1.24,11,3,12.613V12.5a.5.5,0,0,1,.5-.5h9a.5.5,0,0,1,.5.5v.113L14.76,11,13,9.387V9.5a.5.5,0,0,1-.5.5h-3A.5.5,0,0,1,9,9.5v-5A.5.5,0,0,1,9.5,4h.113L8,2.24Z"/></svg>