<svg xmlns="http://www.w3.org/2000/svg" viewBox="0 0 16 16"><defs><style type="text/css">.skinbase80{fill:#517bcc;fill-opacity:0.8;}</style></defs><title>箭头总汇-下弧形箭头</title><path class="skinbase80" d="M9,14H5A5,5,0,0,1,0,9V5.5A.5.5,0,0,1,.5,5h4a.5.5,0,0,1,.5.5V9a4,4,0,0,0,2,3.465A4,4,0,0,0,9,9V7H7.5a.5.5,0,0,1-.39-.812l4-5a.5.5,0,0,1,.781,0l4,5A.5.5,0,0,1,15.5,7H14V9A5,5,0,0,1,9,14Zm0-1a4,4,0,0,0,4-4V6.5a.5.5,0,0,1,.5-.5h.96L11.5,2.3,8.54,6H9.5a.5.5,0,0,1,.5.5V9a5,5,0,0,1-1.875,3.9A4.017,4.017,0,0,0,9,13ZM4,9V6H1V9a4,4,0,0,0,4.875,3.9A5,5,0,0,1,4,9Z"/></svg>