<svg xmlns="http://www.w3.org/2000/svg" viewBox="0 0 16 16"><defs><style type="text/css">.skinbase80{fill:#517bcc;fill-opacity:0.8;}</style></defs><title>箭头总汇-手杖形箭头</title><path class="skinbase80" d="M8,9H6.354a.9.9,0,0,0-.691,1.476l4.453,5.344a.5.5,0,0,0,.768,0l4.453-5.344A.9.9,0,0,0,14.646,9H13V7.5a6.5,6.5,0,0,0-13,0v7a.5.5,0,0,0,.5.5h4a.5.5,0,0,0,.5-.5v-7a1.5,1.5,0,0,1,3,0ZM4,14H1V7.5a5.5,5.5,0,0,1,11,0v2a.5.5,0,0,0,.5.5h1.932L10.5,14.719,6.568,10H8.5A.5.5,0,0,0,9,9.5v-2a2.5,2.5,0,0,0-5,0Z"/></svg>