<svg xmlns="http://www.w3.org/2000/svg" viewBox="0 0 16 16"><defs><style type="text/css">.skinbase80{fill:#517bcc;fill-opacity:0.8;}</style></defs><title>箭头总汇-十字箭头</title><path class="skinbase80" d="M6,6V4H5.25a.5.5,0,0,1-.369-.838l2.75-3a.5.5,0,0,1,.737,0l2.75,3A.5.5,0,0,1,10.75,4H10V6h2V5.25a.5.5,0,0,1,.838-.369l3,2.75a.5.5,0,0,1,0,.737l-3,2.75A.5.5,0,0,1,12,10.75V10H10v2h.75a.5.5,0,0,1,.369.838l-2.75,3a.5.5,0,0,1-.737,0l-2.75-3A.5.5,0,0,1,5.25,12H6V10H4v.75a.5.5,0,0,1-.838.369l-3-2.75a.5.5,0,0,1,0-.737l3-2.75A.5.5,0,0,1,4,5.25V6Zm.387-3H6.5a.5.5,0,0,1,.5.5v3a.5.5,0,0,1-.5.5h-3A.5.5,0,0,1,3,6.5V6.387L1.24,8,3,9.613V9.5A.5.5,0,0,1,3.5,9h3a.5.5,0,0,1,.5.5v3a.5.5,0,0,1-.5.5H6.387L8,14.76,9.613,13H9.5a.5.5,0,0,1-.5-.5v-3A.5.5,0,0,1,9.5,9h3a.5.5,0,0,1,.5.5v.113L14.76,8,13,6.387V6.5a.5.5,0,0,1-.5.5h-3A.5.5,0,0,1,9,6.5v-3A.5.5,0,0,1,9.5,3h.113L8,1.24Z"/></svg>