<svg xmlns="http://www.w3.org/2000/svg" viewBox="0 0 16 16"><defs><style type="text/css">.skinbase80{fill:#517bcc;fill-opacity:0.8;}</style></defs><title>箭头总汇-十字箭头标注</title><path class="skinbase80" d="M4,6V4.5A.5.5,0,0,1,4.5,4H6V3H5.25a.5.5,0,0,1-.294-.9l2.75-2a.5.5,0,0,1,.588,0l2.75,2a.5.5,0,0,1-.294.9H10V4h1.5a.5.5,0,0,1,.5.5V6h1V5.25a.5.5,0,0,1,.9-.294l2,2.75a.5.5,0,0,1,0,.588l-2,2.75a.5.5,0,0,1-.9-.294V10H12v1.5a.5.5,0,0,1-.5.5H10v1h.75a.5.5,0,0,1,.294.9l-2.75,2a.5.5,0,0,1-.588,0l-2.75-2A.5.5,0,0,1,5.25,13H6V12H4.5a.5.5,0,0,1-.5-.5V10H3v.75a.5.5,0,0,1-.9.294l-2-2.75a.5.5,0,0,1,0-.588l2-2.75A.5.5,0,0,1,3,5.25V6ZM5,5V6.5a.5.5,0,0,1-.5.5h-2a.5.5,0,0,1-.45-.281L1.118,8,2.05,9.281A.5.5,0,0,1,2.5,9h2a.5.5,0,0,1,.5.5V11H6.5a.5.5,0,0,1,.5.5v2a.5.5,0,0,1-.281.45L8,14.882l1.281-.932A.5.5,0,0,1,9,13.5v-2a.5.5,0,0,1,.5-.5H11V9.5a.5.5,0,0,1,.5-.5h2a.5.5,0,0,1,.45.281L14.882,8,13.95,6.719A.5.5,0,0,1,13.5,7h-2a.5.5,0,0,1-.5-.5V5H9.5A.5.5,0,0,1,9,4.5v-2a.5.5,0,0,1,.281-.45L8,1.118,6.719,2.05A.5.5,0,0,1,7,2.5v2a.5.5,0,0,1-.5.5Z"/></svg>