<svg xmlns="http://www.w3.org/2000/svg" viewBox="0 0 16 16"><defs><style type="text/css">.skinbase20,.skinbase80{fill:#517bcc;}.skinbase20{fill-opacity:0.2;}.skinbase80{fill-opacity:0.8;}</style></defs><title>标注-线形标注2（带边框和强调线）</title><rect class="skinbase20" x="9" y="1" width="7" height="13" rx="0.5" ry="0.5"/><path class="skinbase80" d="M6,7V1.5a.5.5,0,0,1,1,0v12a.5.5,0,0,1-1,0V8H3.847L.968,15.676a.5.5,0,0,1-.936-.351l3-8A.5.5,0,0,1,3.5,7ZM9,1.5A.5.5,0,0,1,9.5,1h6a.5.5,0,0,1,.5.5v12a.5.5,0,0,1-.5.5h-6a.5.5,0,0,1-.5-.5ZM10,13h5V2H10Z"/></svg>