<svg xmlns="http://www.w3.org/2000/svg" viewBox="0 0 16 16"><defs><style type="text/css">.skinbase80{fill:#517bcc;fill-opacity:0.8;}</style></defs><title>标注-椭圆形标注</title><path class="skinbase80" d="M7.711,14,5.878,15.829A1.1,1.1,0,0,1,4,15.051V13.132A6.392,6.392,0,0,1,0,7.5C0,3.883,3.6,1,8,1s8,2.883,8,6.5S12.4,14,8,14Q7.855,14,7.711,14Zm-.173-1.008Q7.768,13,8,13c3.887,0,7-2.49,7-5.5S11.887,2,8,2,1,4.49,1,7.5a5.49,5.49,0,0,0,3.695,4.847A.5.5,0,0,1,5,12.808v2.244a.1.1,0,0,0,.171.071l1.988-1.988A.5.5,0,0,1,7.538,12.988Z"/></svg>