<svg xmlns="http://www.w3.org/2000/svg" viewBox="0 0 16 16"><defs><style type="text/css">.skinbase80{fill:#517bcc;fill-opacity:0.8;}</style></defs><title>标注-云形标注</title><path class="skinbase80" d="M5.878,15.829A1.1,1.1,0,0,1,4,15.051V12.973A4.5,4.5,0,0,1,1.309,5.327,3,3,0,0,1,5.726,1.546,5,5,0,0,1,12.1,3.137,3,3,0,0,1,15.236,8a3,3,0,0,1-3.707,4.615A3,3,0,0,1,7.911,13.8Zm2.166-3.072A2,2,0,0,0,10.875,11.7a.5.5,0,0,1,.8-.2A2,2,0,1,0,14.2,8.4a.5.5,0,0,1,0-.8,2,2,0,0,0-2.079-3.4.5.5,0,0,1-.653-.2A4,4,0,0,0,5.935,2.573a.5.5,0,0,1-.594-.057A2,2,0,0,0,2.355,5.138a.5.5,0,0,1-.091.669A3.5,3.5,0,0,0,4.5,12a.5.5,0,0,1,.5.5v2.551a.1.1,0,0,0,.171.071l2.28-2.28A.5.5,0,0,1,8.044,12.757Z"/></svg>