<svg xmlns="http://www.w3.org/2000/svg" viewBox="0 0 16 16"><defs><style type="text/css">.skinbase80{fill:#517bcc;fill-opacity:0.8;}</style></defs><title>基本形状-十边形</title><path class="skinbase80" d="M6,10h.5a.5.5,0,0,1,0,1h-2a.5.5,0,0,1,0-1H5V6.707l-.146.146a.5.5,0,0,1-.707-.707l1-1A.5.5,0,0,1,6,5.5ZM-.03,8.255a.5.5,0,0,1,0-.51l3.85-6.5A.5.5,0,0,1,4.25,1h7.5a.5.5,0,0,1,.43.245l3.85,6.5a.5.5,0,0,1,0,.51l-3.85,6.5a.5.5,0,0,1-.43.245H4.25a.5.5,0,0,1-.43-.245ZM.981,8l3.554,6h6.93l3.554-6L11.465,2H4.535ZM9.5,5A1.5,1.5,0,0,1,11,6.5v3a1.5,1.5,0,0,1-3,0v-3A1.5,1.5,0,0,1,9.5,5Zm0,1a.5.5,0,0,0-.5.5v3a.5.5,0,0,0,1,0v-3A.5.5,0,0,0,9.5,6Z"/></svg>