<svg xmlns="http://www.w3.org/2000/svg" viewBox="0 0 16 16"><defs><style type="text/css">.skinbase80{fill:#517bcc;fill-opacity:0.8;}</style></defs><title>基本形状-文本框</title><path class="skinbase80" d="M6.3,7,5.5,4.9,4.7,7ZM4.321,8l-.354.928a.5.5,0,1,1-.934-.356L4.659,4.3a.9.9,0,0,1,1.682,0L7.967,8.572a.5.5,0,1,1-.934.356L6.679,8ZM1.5,1h13A1.5,1.5,0,0,1,16,2.5v11A1.5,1.5,0,0,1,14.5,15H1.5A1.5,1.5,0,0,1,0,13.5V2.5A1.5,1.5,0,0,1,1.5,1Zm0,1a.5.5,0,0,0-.5.5v11a.5.5,0,0,0,.5.5h13a.5.5,0,0,0,.5-.5V2.5a.5.5,0,0,0-.5-.5Zm2,9h9a.5.5,0,1,1,0,1h-9A.5.5,0,1,1,3.5,11Zm6-3h3a.5.5,0,1,1,0,1h-3A.5.5,0,1,1,9.5,8Zm0-2a.5.5,0,0,1,0-1h3a.5.5,0,0,1,0,1Z"/></svg>