<svg xmlns="http://www.w3.org/2000/svg" viewBox="0 0 16 16"><defs><style type="text/css">.skinbase80{fill:#517bcc;fill-opacity:0.8;}</style></defs><title>基本形状-七边形</title><path class="skinbase80" d="M-.03,8.255a.5.5,0,0,1,0-.51l3.85-6.5A.5.5,0,0,1,4.25,1h7.5a.5.5,0,0,1,.43.245l3.85,6.5a.5.5,0,0,1,0,.51l-3.85,6.5a.5.5,0,0,1-.43.245H4.25a.5.5,0,0,1-.43-.245ZM.981,8l3.554,6h6.93l3.554-6L11.465,2H4.535ZM7,6.5a.5.5,0,0,1-1,0v-1A.5.5,0,0,1,6.5,5h3a.5.5,0,0,1,.5.5v1a.5.5,0,0,1-.053.224l-2,4a.5.5,0,0,1-.894-.447L9,6.382V6H7Z"/></svg>