<svg xmlns="http://www.w3.org/2000/svg" viewBox="0 0 16 16"><defs><style type="text/css">.skinbase80{fill:#517bcc;fill-opacity:0.8;}</style></defs><title>基本形状-十二边形</title><path class="skinbase80" d="M6,10h.5a.5.5,0,0,1,0,1h-2a.5.5,0,0,1,0-1H5V6.707l-.146.146a.5.5,0,0,1-.707-.707l1-1A.5.5,0,0,1,6,5.5ZM-.03,8.255a.5.5,0,0,1,0-.51l3.85-6.5A.5.5,0,0,1,4.25,1h7.5a.5.5,0,0,1,.43.245l3.85,6.5a.5.5,0,0,1,0,.51l-3.85,6.5a.5.5,0,0,1-.43.245H4.25a.5.5,0,0,1-.43-.245ZM.981,8l3.554,6h6.93l3.554-6L11.465,2H4.535Zm8.188,2H10.5a.5.5,0,0,1,0,1h-2a.5.5,0,0,1-.5-.5v-.12a1.5,1.5,0,0,1,.379-1l1.242-1.4a1.5,1.5,0,0,0,.379-1V6.5a.5.5,0,0,0-1,0v.25a.5.5,0,0,1-1,0V6.5a1.5,1.5,0,0,1,3,0v.49a2.5,2.5,0,0,1-.631,1.661Z"/></svg>