<svg xmlns="http://www.w3.org/2000/svg" viewBox="0 0 16 16"><defs><style type="text/css">.skinbase80{fill:#517bcc;fill-opacity:0.8;}</style></defs><title>基本形状-云形</title><path class="skinbase80" d="M10.5,15a2.494,2.494,0,0,1-1.66-.63A3,3,0,0,1,4.169,13Q4.085,13,4,13A4,4,0,0,1,3,5.126Q3,5.063,3,5a5,5,0,0,1,9.942-.764,4.5,4.5,0,0,1,.046,8.512A2.5,2.5,0,0,1,10.5,15Zm1.872-3.109a3.5,3.5,0,0,0-.01-6.784.5.5,0,0,1-.376-.443A4,4,0,0,0,4,5a4.047,4.047,0,0,0,.028.473.5.5,0,0,1-.43.554,3,3,0,1,0,.868,5.938.5.5,0,0,1,.568.4,2,2,0,0,0,3.463.96.5.5,0,0,1,.781.042A1.5,1.5,0,0,0,12,12.5q0-.047,0-.094A.5.5,0,0,1,12.372,11.891Z"/></svg>