<svg xmlns="http://www.w3.org/2000/svg" viewBox="0 0 16 16"><defs><style type="text/css">.skinbase80{fill:#517bcc;fill-opacity:0.8;}</style></defs><title>基本形状-心形</title><path class="skinbase80" d="M8,4.293,9.146,3.146a4.036,4.036,0,0,1,5.707,0,4.31,4.31,0,0,1,.183,5.9Q14.108,10.1,13.6,10.6q-1.811,1.811-4.628,4.223a1.5,1.5,0,0,1-1.951,0Q4.207,12.414,2.4,10.6,1.891,10.1.963,9.047a4.31,4.31,0,0,1,.183-5.9,4.036,4.036,0,0,1,5.707,0ZM1.854,3.854a3.31,3.31,0,0,0-.141,4.532Q2.623,9.416,3.1,9.9q1.781,1.781,4.571,4.17a.5.5,0,0,0,.65,0q2.79-2.389,4.571-4.17.479-.479,1.391-1.511a3.31,3.31,0,0,0-.141-4.532,3.036,3.036,0,0,0-4.293,0l-1.5,1.5a.5.5,0,0,1-.707,0l-1.5-1.5A3.036,3.036,0,0,0,1.854,3.854Z"/></svg>