<svg xmlns="http://www.w3.org/2000/svg" viewBox="0 0 16 16"><defs><style type="text/css">.skinbase80{fill:#517bcc;fill-opacity:0.8;}</style></defs><title>预设-曲线双箭头连接符</title><path class="skinbase80" d="M1.707,2H6.5c4.368,0,4.891,5.23,1.158,6.474C4.956,9.375,5.318,13,8.5,13h4.793l-1.146-1.146a.5.5,0,0,1,.707-.707l2,2a.5.5,0,0,1,0,.707l-2,2a.5.5,0,0,1-.707-.707L13.293,14H8.5C4.132,14,3.609,8.77,7.342,7.526,10.044,6.625,9.682,3,6.5,3H1.707L2.854,4.146a.5.5,0,0,1-.707.707l-2-2a.5.5,0,0,1,0-.707l2-2a.5.5,0,1,1,.707.707Z"/></svg>