<svg xmlns="http://www.w3.org/2000/svg" viewBox="0 0 16 16"><defs><style type="text/css">.skinbase80{fill:#517bcc;fill-opacity:0.8;}</style></defs><title>预设-自由曲线</title><path class="skinbase80" d="M8.5,16c4.24,0,7.5-1.63,7.5-4,0-2.314-3.5-3.447-7.555-3a10.267,10.267,0,0,0-5.52,2.3,4.262,4.262,0,0,1,.294-1.628C3.853,7.982,5.545,7,8.582,6.493,11.637,5.984,13,4.894,13,3c0-1.8-1.719-3-4-3A5.759,5.759,0,0,0,4.1,2.2a.5.5,0,1,0,.8.6A4.774,4.774,0,0,1,9,1c1.79,0,3,.847,3,2,0,1.306-.953,2.069-3.582,2.507-3.352.559-5.349,1.718-6.136,3.818a4.926,4.926,0,0,0-.262,2.839A10.2,10.2,0,0,0,.036,15.314a.5.5,0,0,0,.928.371,9.24,9.24,0,0,1,1.459-2.465C3.364,14.919,5.555,16,8.5,16Zm.055-6C12.077,9.606,15,10.551,15,12c0,1.629-2.741,3-6.5,3-2.783,0-4.694-1.009-5.338-2.569A9.21,9.21,0,0,1,8.555,10Z"/></svg>