<svg xmlns="http://www.w3.org/2000/svg" viewBox="0 0 16 16"><defs><style type="text/css">.skinbase80{fill:#517bcc;fill-opacity:0.8;}</style></defs><title>预设-曲线</title><path class="skinbase80" d="M13.889,3.186A8.455,8.455,0,0,0,8.582.007C5.338-.534,3.2,1.757,4.019,4.637c.465,1.626,1.37,2.418,3.729,3.795,2.141,1.249,2.9,1.915,3.271,3.205.6,2.1-.942,3.785-3.437,3.369a7.457,7.457,0,0,1-4.693-2.821.5.5,0,1,0-.778.628,8.454,8.454,0,0,0,5.307,3.179c3.213.535,5.367-1.817,4.563-4.631-.465-1.626-1.37-2.418-3.729-3.795-2.141-1.249-2.9-1.915-3.271-3.205C4.363,2.2,5.887.571,8.418.993a7.457,7.457,0,0,1,4.693,2.821.5.5,0,0,0,.778-.628Z"/></svg>