<svg xmlns="http://www.w3.org/2000/svg" viewBox="0 0 16 16"><defs><style type="text/css">.skinbase80{fill:#517bcc;fill-opacity:0.8;}</style></defs><title>预设-任意多边形</title><path class="skinbase80" d="M1.5,15h13a.5.5,0,0,0,.5-.5v-9a.5.5,0,0,0-.11-.312l-4-5A.5.5,0,0,0,10.5,0h-5a.5.5,0,0,0-.265.924C7.771,2.509,9,4.045,9,5.5a2.091,2.091,0,0,1-4.053.776A2.883,2.883,0,0,0,2.081,4.667C.83,4.827,0,5.882,0,7.5a29.862,29.862,0,0,0,1.015,7.121A.5.5,0,0,0,1.5,15ZM1,7.5c0-1.137.481-1.748,1.207-1.841A1.885,1.885,0,0,1,4.053,6.724,3.088,3.088,0,0,0,10,5.5C10,3.95,9.022,2.457,7.11,1H10.26L14,5.675V14H1.892A28.237,28.237,0,0,1,1,7.5Z"/></svg>