<svg xmlns="http://www.w3.org/2000/svg" viewBox="0 0 16 16"><defs><style type="text/css">.skinbase80{fill:#517bcc;fill-opacity:0.8;}</style></defs><title>标注-圆角矩形标注</title><path class="skinbase80" d="M8.707,13,5.878,15.829A1.1,1.1,0,0,1,4,15.051V13H3.5A3.5,3.5,0,0,1,0,9.5v-4A3.5,3.5,0,0,1,3.5,2h9A3.5,3.5,0,0,1,16,5.5v4A3.5,3.5,0,0,1,12.5,13ZM8.5,12h4A2.5,2.5,0,0,0,15,9.5v-4A2.5,2.5,0,0,0,12.5,3h-9A2.5,2.5,0,0,0,1,5.5v4A2.5,2.5,0,0,0,3.5,12h1a.5.5,0,0,1,.5.5v2.551a.1.1,0,0,0,.171.071l2.976-2.976A.5.5,0,0,1,8.5,12Z"/></svg>