<svg xmlns="http://www.w3.org/2000/svg" viewBox="0 0 16 16"><defs><style type="text/css">.skinbase20,.skinbase80{fill:#517bcc;}.skinbase20{fill-opacity:0.2;}.skinbase80{fill-opacity:0.8;}</style></defs><title>标注-线形标注3（带边框和强调线）</title><rect class="skinbase20" x="9" width="7" height="13" rx="0.5" ry="0.5"/><path class="skinbase80" d="M6,6V.5a.5.5,0,0,1,1,0v12a.5.5,0,0,1-1,0V7H1v4.293l3.854,3.854a.5.5,0,0,1-.707.707l-4-4A.5.5,0,0,1,0,11.5v-5A.5.5,0,0,1,.5,6ZM9,.5A.5.5,0,0,1,9.5,0h6a.5.5,0,0,1,.5.5v12a.5.5,0,0,1-.5.5h-6a.5.5,0,0,1-.5-.5ZM10,1V12h5V1Z"/></svg>