<svg xmlns="http://www.w3.org/2000/svg" viewBox="0 0 16 16"><defs><style type="text/css">.skinbase20,.skinbase80{fill:#517bcc;}.skinbase20{fill-opacity:0.2;}.skinbase80{fill-opacity:0.8;}</style></defs><title>标注-线形标注1（带边框和强调线）</title><rect class="skinbase20" x="9" y="1" width="7" height="13" rx="0.5" ry="0.5"/><path class="skinbase80" d="M7,7.506V13.5a.5.5,0,0,1-1,0V9L.9,15.8a.5.5,0,0,1-.8-.6L6,7.333V1.5a.5.5,0,0,1,1,0V7.506ZM9,1.5A.5.5,0,0,1,9.5,1h6a.5.5,0,0,1,.5.5v12a.5.5,0,0,1-.5.5h-6a.5.5,0,0,1-.5-.5ZM10,13h5V2H10Z"/></svg>