<svg xmlns="http://www.w3.org/2000/svg" viewBox="0 0 16 16"><defs><style type="text/css">.skinbase80{fill:#517bcc;fill-opacity:0.8;}</style></defs><title>标注-矩形标注</title><path class="skinbase80" d="M8.707,13,5.878,15.829A1.1,1.1,0,0,1,4,15.051V13H1.5A1.5,1.5,0,0,1,0,11.5v-8A1.5,1.5,0,0,1,1.5,2h12A1.5,1.5,0,0,1,15,3.5v8A1.5,1.5,0,0,1,13.5,13ZM8.5,12h5a.5.5,0,0,0,.5-.5v-8a.5.5,0,0,0-.5-.5H1.5a.5.5,0,0,0-.5.5v8a.5.5,0,0,0,.5.5h3a.5.5,0,0,1,.5.5v2.551a.1.1,0,0,0,.171.071l2.976-2.976A.5.5,0,0,1,8.5,12Z"/></svg>